<svg width="164" height="42" viewBox="0 0 164 42" fill="none" xmlns="http://www.w3.org/2000/svg">
<g filter="url(#filter0_d_4_2211)">
<path d="M6 8C6 5.79086 7.79086 4 10 4H154C156.209 4 158 5.79086 158 8V30C158 32.2091 156.209 34 154 34H10C7.79086 34 6 32.2091 6 30V8Z" fill="#09357B"/>
<path d="M30.75 12.75H23.25C22.425 12.75 21.75 13.425 21.75 14.25V26.25L27 24L32.25 26.25V14.25C32.25 13.425 31.575 12.75 30.75 12.75Z" fill="white"/>
<mask id="mask0_4_2211" style="mask-type:alpha" maskUnits="userSpaceOnUse" x="21" y="12" width="12" height="15">
<path d="M30.75 12.75H23.25C22.425 12.75 21.75 13.425 21.75 14.25V26.25L27 24L32.25 26.25V14.25C32.25 13.425 31.575 12.75 30.75 12.75Z" fill="white"/>
</mask>
<g mask="url(#mask0_4_2211)">
</g>
<path d="M48.1128 21.3481H44.5327L43.7837 23.5H42.1143L45.6055 14.2578H47.0464L50.5439 23.5H48.8682L48.1128 21.3481ZM44.9834 20.0532H47.6621L46.3228 16.2192L44.9834 20.0532ZM51.8977 23.5V14.2578H54.6271C55.4439 14.2578 56.1675 14.4398 56.798 14.8037C57.4328 15.1676 57.9237 15.6839 58.2707 16.3525C58.6177 17.0212 58.7912 17.7871 58.7912 18.6504V19.1138C58.7912 19.9897 58.6156 20.7599 58.2644 21.4243C57.9174 22.0887 57.4201 22.6007 56.7727 22.9604C56.1294 23.3201 55.391 23.5 54.5573 23.5H51.8977ZM53.5036 15.5527V22.2178H54.551C55.3931 22.2178 56.0384 21.9554 56.487 21.4307C56.9398 20.9017 57.1704 20.1442 57.1789 19.1582V18.644C57.1789 17.6411 56.961 16.8752 56.5251 16.3462C56.0892 15.8172 55.4566 15.5527 54.6271 15.5527H53.5036ZM60.6908 23.5V14.2578H63.4203C64.237 14.2578 64.9607 14.4398 65.5912 14.8037C66.226 15.1676 66.7169 15.6839 67.0639 16.3525C67.4109 17.0212 67.5844 17.7871 67.5844 18.6504V19.1138C67.5844 19.9897 67.4088 20.7599 67.0575 21.4243C66.7105 22.0887 66.2133 22.6007 65.5658 22.9604C64.9226 23.3201 64.1841 23.5 63.3505 23.5H60.6908ZM62.2968 15.5527V22.2178H63.3441C64.1863 22.2178 64.8316 21.9554 65.2802 21.4307C65.733 20.9017 65.9636 20.1442 65.9721 19.1582V18.644C65.9721 17.6411 65.7541 16.8752 65.3183 16.3462C64.8824 15.8172 64.2497 15.5527 63.4203 15.5527H62.2968ZM73.0213 23.5V14.2578H76.1888C77.234 14.2578 78.0296 14.4673 78.5755 14.8862C79.1214 15.3052 79.3943 15.9294 79.3943 16.7588C79.3943 17.182 79.2801 17.5628 79.0516 17.9014C78.823 18.2399 78.4887 18.5023 78.0486 18.6885C78.548 18.8239 78.9331 19.0799 79.2039 19.4565C79.479 19.8289 79.6165 20.2775 79.6165 20.8022C79.6165 21.6698 79.3372 22.3363 78.7786 22.8018C78.2243 23.2673 77.4287 23.5 76.3919 23.5H73.0213ZM74.6272 19.3296V22.2178H76.4109C76.9145 22.2178 77.3081 22.0929 77.5916 21.8433C77.8751 21.5936 78.0169 21.2466 78.0169 20.8022C78.0169 19.8416 77.526 19.3507 76.5442 19.3296H74.6272ZM74.6272 18.1489H76.2015C76.7008 18.1489 77.0901 18.0368 77.3694 17.8125C77.653 17.584 77.7947 17.2624 77.7947 16.8477C77.7947 16.3906 77.6635 16.0605 77.4012 15.8574C77.143 15.6543 76.7389 15.5527 76.1888 15.5527H74.6272V18.1489ZM88.8984 19.1201C88.8984 20.0257 88.7419 20.8213 88.4287 21.5068C88.1156 22.1882 87.667 22.7129 87.083 23.0811C86.5033 23.445 85.8346 23.627 85.0771 23.627C84.3281 23.627 83.6595 23.445 83.0713 23.0811C82.4873 22.7129 82.0345 22.1903 81.7129 21.5132C81.3955 20.8361 81.2347 20.0553 81.2305 19.1709V18.6504C81.2305 17.749 81.3892 16.9535 81.7065 16.2637C82.0282 15.5739 82.4788 15.047 83.0586 14.6831C83.6426 14.3149 84.3112 14.1309 85.0645 14.1309C85.8177 14.1309 86.4842 14.3128 87.064 14.6768C87.6479 15.0365 88.0986 15.557 88.416 16.2383C88.7334 16.9154 88.8942 17.7046 88.8984 18.606V19.1201ZM87.2925 18.6377C87.2925 17.6136 87.0978 16.8286 86.7085 16.2827C86.3234 15.7368 85.7754 15.4639 85.0645 15.4639C84.3704 15.4639 83.8267 15.7368 83.4331 16.2827C83.0438 16.8244 82.8449 17.5924 82.8364 18.5869V19.1201C82.8364 20.1357 83.0332 20.9207 83.4268 21.4751C83.8245 22.0295 84.3747 22.3066 85.0771 22.3066C85.7881 22.3066 86.334 22.0358 86.7148 21.4941C87.0999 20.9525 87.2925 20.1611 87.2925 19.1201V18.6377ZM98.174 19.1201C98.174 20.0257 98.0174 20.8213 97.7043 21.5068C97.3911 22.1882 96.9426 22.7129 96.3586 23.0811C95.7788 23.445 95.1102 23.627 94.3527 23.627C93.6037 23.627 92.9351 23.445 92.3469 23.0811C91.7629 22.7129 91.3101 22.1903 90.9885 21.5132C90.6711 20.8361 90.5103 20.0553 90.5061 19.1709V18.6504C90.5061 17.749 90.6647 16.9535 90.9821 16.2637C91.3037 15.5739 91.7544 15.047 92.3342 14.6831C92.9182 14.3149 93.5868 14.1309 94.34 14.1309C95.0933 14.1309 95.7598 14.3128 96.3396 14.6768C96.9235 15.0365 97.3742 15.557 97.6916 16.2383C98.009 16.9154 98.1698 17.7046 98.174 18.606V19.1201ZM96.5681 18.6377C96.5681 17.6136 96.3734 16.8286 95.9841 16.2827C95.599 15.7368 95.051 15.4639 94.34 15.4639C93.646 15.4639 93.1022 15.7368 92.7087 16.2827C92.3194 16.8244 92.1205 17.5924 92.112 18.5869V19.1201C92.112 20.1357 92.3088 20.9207 92.7023 21.4751C93.1001 22.0295 93.6503 22.3066 94.3527 22.3066C95.0637 22.3066 95.6096 22.0358 95.9904 21.4941C96.3755 20.9525 96.5681 20.1611 96.5681 19.1201V18.6377ZM102.727 19.5073L101.68 20.6182V23.5H100.074V14.2578H101.68V18.5933L102.568 17.4951L105.272 14.2578H107.215L103.781 18.3521L107.412 23.5H105.507L102.727 19.5073ZM110.657 14.2578L113.323 21.3418L115.983 14.2578H118.058V23.5H116.459V20.4531L116.617 16.3779L113.888 23.5H112.739L110.016 16.3843L110.174 20.4531V23.5H108.575V14.2578H110.657ZM125.55 21.3481H121.97L121.221 23.5H119.552L123.043 14.2578H124.484L127.981 23.5H126.305L125.55 21.3481ZM122.421 20.0532H125.099L123.76 16.2192L122.421 20.0532ZM132.731 19.939H130.941V23.5H129.335V14.2578H132.585C133.651 14.2578 134.474 14.4969 135.054 14.9751C135.634 15.4533 135.924 16.1452 135.924 17.0508C135.924 17.6686 135.774 18.187 135.473 18.606C135.177 19.0207 134.762 19.3402 134.229 19.5645L136.305 23.4175V23.5H134.584L132.731 19.939ZM130.941 18.6504H132.591C133.133 18.6504 133.556 18.515 133.861 18.2441C134.166 17.9691 134.318 17.5946 134.318 17.1206C134.318 16.6255 134.176 16.2425 133.893 15.9717C133.613 15.7008 133.194 15.5612 132.636 15.5527H130.941V18.6504ZM140.401 19.5073L139.353 20.6182V23.5H137.747V14.2578H139.353V18.5933L140.242 17.4951L142.946 14.2578H144.888L141.454 18.3521L145.085 23.5H143.181L140.401 19.5073Z" fill="white"/>
</g>
<defs>
<filter id="filter0_d_4_2211" x="0" y="0" width="164" height="42" filterUnits="userSpaceOnUse" color-interpolation-filters="sRGB">
<feFlood flood-opacity="0" result="BackgroundImageFix"/>
<feColorMatrix in="SourceAlpha" type="matrix" values="0 0 0 0 0 0 0 0 0 0 0 0 0 0 0 0 0 0 127 0" result="hardAlpha"/>
<feOffset dy="2"/>
<feGaussianBlur stdDeviation="3"/>
<feColorMatrix type="matrix" values="0 0 0 0 0 0 0 0 0 0 0 0 0 0 0 0 0 0 0.06 0"/>
<feBlend mode="normal" in2="BackgroundImageFix" result="effect1_dropShadow_4_2211"/>
<feBlend mode="normal" in="SourceGraphic" in2="effect1_dropShadow_4_2211" result="shape"/>
</filter>
</defs>
</svg>
