<svg width="190" height="42" viewBox="0 0 190 42" fill="none" xmlns="http://www.w3.org/2000/svg">
<g filter="url(#filter0_d_4_2223)">
<path d="M6 8C6 5.79086 7.79086 4 10 4H180C182.209 4 184 5.79086 184 8V30C184 32.2091 182.209 34 180 34H10C7.79086 34 6 32.2091 6 30V8Z" fill="#09357B"/>
<path d="M30.75 12.75H23.25C22.425 12.75 21.75 13.425 21.75 14.25V26.25L27 24L32.25 26.25V14.25C32.25 13.425 31.575 12.75 30.75 12.75Z" fill="white"/>
<mask id="mask0_4_2223" style="mask-type:alpha" maskUnits="userSpaceOnUse" x="21" y="12" width="12" height="15">
<path d="M30.75 12.75H23.25C22.425 12.75 21.75 13.425 21.75 14.25V26.25L27 24L32.25 26.25V14.25C32.25 13.425 31.575 12.75 30.75 12.75Z" fill="white"/>
</mask>
<g mask="url(#mask0_4_2223)">
</g>
<path d="M46.3354 19.939H44.5454V23.5H42.9395V14.2578H46.1895C47.2559 14.2578 48.0789 14.4969 48.6587 14.9751C49.2384 15.4533 49.5283 16.1452 49.5283 17.0508C49.5283 17.6686 49.3781 18.187 49.0776 18.606C48.7814 19.0207 48.3667 19.3402 47.8335 19.5645L49.9092 23.4175V23.5H48.189L46.3354 19.939ZM44.5454 18.6504H46.1958C46.7375 18.6504 47.1606 18.515 47.4653 18.2441C47.77 17.9691 47.9224 17.5946 47.9224 17.1206C47.9224 16.6255 47.7806 16.2425 47.4971 15.9717C47.2178 15.7008 46.7988 15.5612 46.2402 15.5527H44.5454V18.6504ZM56.7536 19.374H52.9577V22.2178H57.3947V23.5H51.3518V14.2578H57.3503V15.5527H52.9577V18.1045H56.7536V19.374ZM61.0844 14.2578L63.7504 21.3418L66.4101 14.2578H68.4857V23.5H66.8861V20.4531L67.0448 16.3779L64.3153 23.5H63.1664L60.4433 16.3843L60.602 20.4531V23.5H59.0023V14.2578H61.0844ZM78.066 19.1201C78.066 20.0257 77.9094 20.8213 77.5963 21.5068C77.2831 22.1882 76.8346 22.7129 76.2506 23.0811C75.6708 23.445 75.0022 23.627 74.2447 23.627C73.4957 23.627 72.8271 23.445 72.2389 23.0811C71.6549 22.7129 71.2021 22.1903 70.8805 21.5132C70.5631 20.8361 70.4023 20.0553 70.398 19.1709V18.6504C70.398 17.749 70.5567 16.9535 70.8741 16.2637C71.1957 15.5739 71.6464 15.047 72.2262 14.6831C72.8102 14.3149 73.4788 14.1309 74.232 14.1309C74.9853 14.1309 75.6518 14.3128 76.2315 14.6768C76.8155 15.0365 77.2662 15.557 77.5836 16.2383C77.901 16.9154 78.0618 17.7046 78.066 18.606V19.1201ZM76.4601 18.6377C76.4601 17.6136 76.2654 16.8286 75.8761 16.2827C75.491 15.7368 74.943 15.4639 74.232 15.4639C73.538 15.4639 72.9942 15.7368 72.6007 16.2827C72.2114 16.8244 72.0125 17.5924 72.004 18.5869V19.1201C72.004 20.1357 72.2008 20.9207 72.5943 21.4751C72.9921 22.0295 73.5423 22.3066 74.2447 22.3066C74.9557 22.3066 75.5016 22.0358 75.8824 21.4941C76.2675 20.9525 76.4601 20.1611 76.4601 19.1201V18.6377ZM83.0823 21.4878L85.431 14.2578H87.1956L83.8694 23.5H82.3143L79.0008 14.2578H80.7591L83.0823 21.4878ZM93.9448 19.374H90.1489V22.2178H94.5859V23.5H88.543V14.2578H94.5415V15.5527H90.1489V18.1045H93.9448V19.374ZM99.7309 23.5V14.2578H102.898C103.944 14.2578 104.739 14.4673 105.285 14.8862C105.831 15.3052 106.104 15.9294 106.104 16.7588C106.104 17.182 105.99 17.5628 105.761 17.9014C105.533 18.2399 105.198 18.5023 104.758 18.6885C105.258 18.8239 105.643 19.0799 105.913 19.4565C106.189 19.8289 106.326 20.2775 106.326 20.8022C106.326 21.6698 106.047 22.3363 105.488 22.8018C104.934 23.2673 104.138 23.5 103.101 23.5H99.7309ZM101.337 19.3296V22.2178H103.121C103.624 22.2178 104.018 22.0929 104.301 21.8433C104.585 21.5936 104.726 21.2466 104.726 20.8022C104.726 19.8416 104.236 19.3507 103.254 19.3296H101.337ZM101.337 18.1489H102.911C103.41 18.1489 103.8 18.0368 104.079 17.8125C104.363 17.584 104.504 17.2624 104.504 16.8477C104.504 16.3906 104.373 16.0605 104.111 15.8574C103.853 15.6543 103.448 15.5527 102.898 15.5527H101.337V18.1489ZM115.608 19.1201C115.608 20.0257 115.451 20.8213 115.138 21.5068C114.825 22.1882 114.377 22.7129 113.793 23.0811C113.213 23.445 112.544 23.627 111.787 23.627C111.038 23.627 110.369 23.445 109.781 23.0811C109.197 22.7129 108.744 22.1903 108.422 21.5132C108.105 20.8361 107.944 20.0553 107.94 19.1709V18.6504C107.94 17.749 108.099 16.9535 108.416 16.2637C108.738 15.5739 109.188 15.047 109.768 14.6831C110.352 14.3149 111.021 14.1309 111.774 14.1309C112.527 14.1309 113.194 14.3128 113.774 14.6768C114.358 15.0365 114.808 15.557 115.126 16.2383C115.443 16.9154 115.604 17.7046 115.608 18.606V19.1201ZM114.002 18.6377C114.002 17.6136 113.807 16.8286 113.418 16.2827C113.033 15.7368 112.485 15.4639 111.774 15.4639C111.08 15.4639 110.536 15.7368 110.143 16.2827C109.753 16.8244 109.554 17.5924 109.546 18.5869V19.1201C109.546 20.1357 109.743 20.9207 110.136 21.4751C110.534 22.0295 111.084 22.3066 111.787 22.3066C112.498 22.3066 113.044 22.0358 113.424 21.4941C113.81 20.9525 114.002 20.1611 114.002 19.1201V18.6377ZM124.884 19.1201C124.884 20.0257 124.727 20.8213 124.414 21.5068C124.101 22.1882 123.652 22.7129 123.068 23.0811C122.488 23.445 121.82 23.627 121.062 23.627C120.313 23.627 119.645 23.445 119.056 23.0811C118.472 22.7129 118.02 22.1903 117.698 21.5132C117.381 20.8361 117.22 20.0553 117.216 19.1709V18.6504C117.216 17.749 117.374 16.9535 117.692 16.2637C118.013 15.5739 118.464 15.047 119.044 14.6831C119.628 14.3149 120.296 14.1309 121.05 14.1309C121.803 14.1309 122.469 14.3128 123.049 14.6768C123.633 15.0365 124.084 15.557 124.401 16.2383C124.719 16.9154 124.879 17.7046 124.884 18.606V19.1201ZM123.278 18.6377C123.278 17.6136 123.083 16.8286 122.694 16.2827C122.309 15.7368 121.761 15.4639 121.05 15.4639C120.356 15.4639 119.812 15.7368 119.418 16.2827C119.029 16.8244 118.83 17.5924 118.822 18.5869V19.1201C118.822 20.1357 119.018 20.9207 119.412 21.4751C119.81 22.0295 120.36 22.3066 121.062 22.3066C121.773 22.3066 122.319 22.0358 122.7 21.4941C123.085 20.9525 123.278 20.1611 123.278 19.1201V18.6377ZM129.437 19.5073L128.389 20.6182V23.5H126.783V14.2578H128.389V18.5933L129.278 17.4951L131.982 14.2578H133.924L130.49 18.3521L134.121 23.5H132.217L129.437 19.5073ZM137.366 14.2578L140.032 21.3418L142.692 14.2578H144.768V23.5H143.168V20.4531L143.327 16.3779L140.597 23.5H139.448L136.725 16.3843L136.884 20.4531V23.5H135.284V14.2578H137.366ZM152.26 21.3481H148.68L147.931 23.5H146.261L149.752 14.2578H151.193L154.691 23.5H153.015L152.26 21.3481ZM149.13 20.0532H151.809L150.47 16.2192L149.13 20.0532ZM159.441 19.939H157.65V23.5H156.045V14.2578H159.295C160.361 14.2578 161.184 14.4969 161.764 14.9751C162.344 15.4533 162.633 16.1452 162.633 17.0508C162.633 17.6686 162.483 18.187 162.183 18.606C161.886 19.0207 161.472 19.3402 160.939 19.5645L163.014 23.4175V23.5H161.294L159.441 19.939ZM157.65 18.6504H159.301C159.843 18.6504 160.266 18.515 160.57 18.2441C160.875 17.9691 161.027 17.5946 161.027 17.1206C161.027 16.6255 160.886 16.2425 160.602 15.9717C160.323 15.7008 159.904 15.5612 159.345 15.5527H157.65V18.6504ZM167.11 19.5073L166.063 20.6182V23.5H164.457V14.2578H166.063V18.5933L166.951 17.4951L169.656 14.2578H171.598L168.164 18.3521L171.795 23.5H169.89L167.11 19.5073Z" fill="white"/>
</g>
<defs>
<filter id="filter0_d_4_2223" x="0" y="0" width="190" height="42" filterUnits="userSpaceOnUse" color-interpolation-filters="sRGB">
<feFlood flood-opacity="0" result="BackgroundImageFix"/>
<feColorMatrix in="SourceAlpha" type="matrix" values="0 0 0 0 0 0 0 0 0 0 0 0 0 0 0 0 0 0 127 0" result="hardAlpha"/>
<feOffset dy="2"/>
<feGaussianBlur stdDeviation="3"/>
<feColorMatrix type="matrix" values="0 0 0 0 0 0 0 0 0 0 0 0 0 0 0 0 0 0 0.06 0"/>
<feBlend mode="normal" in2="BackgroundImageFix" result="effect1_dropShadow_4_2223"/>
<feBlend mode="normal" in="SourceGraphic" in2="effect1_dropShadow_4_2223" result="shape"/>
</filter>
</defs>
</svg>
