<svg width="169" height="42" viewBox="0 0 169 42" fill="none" xmlns="http://www.w3.org/2000/svg">
<g filter="url(#filter0_d_0_25)">
<path d="M6 8C6 5.79086 7.79086 4 10 4H159C161.209 4 163 5.79086 163 8V30C163 32.2091 161.209 34 159 34H10C7.79086 34 6 32.2091 6 30V8Z" fill="#09357B"/>
<path d="M30.75 12.75H23.25C22.425 12.75 21.75 13.425 21.75 14.25V26.25L27 24L32.25 26.25V14.25C32.25 13.425 31.575 12.75 30.75 12.75Z" fill="white"/>
<mask id="mask0_0_25" style="mask-type:alpha" maskUnits="userSpaceOnUse" x="21" y="12" width="12" height="15">
<path d="M30.75 12.75H23.25C22.425 12.75 21.75 13.425 21.75 14.25V26.25L27 24L32.25 26.25V14.25C32.25 13.425 31.575 12.75 30.75 12.75Z" fill="white"/>
</mask>
<g mask="url(#mask0_0_25)">
</g>
<path d="M46.1958 21.4878L48.5444 14.2578H50.3091L46.9829 23.5H45.4277L42.1143 14.2578H43.8726L46.1958 21.4878ZM53.3513 23.5H51.7517V14.2578H53.3513V23.5ZM61.0272 19.374H57.2313V22.2178H61.6684V23.5H55.6254V14.2578H61.6239V15.5527H57.2313V18.1045H61.0272V19.374ZM70.525 21.2148L71.9469 14.2578H73.5401L71.4073 23.5H69.8712L68.1129 16.7524L66.3165 23.5H64.774L62.6412 14.2578H64.2345L65.669 21.2021L67.4337 14.2578H68.7794L70.525 21.2148ZM78.5518 23.5V14.2578H81.7192C82.7645 14.2578 83.5601 14.4673 84.106 14.8862C84.6519 15.3052 84.9248 15.9294 84.9248 16.7588C84.9248 17.182 84.8105 17.5628 84.582 17.9014C84.3535 18.2399 84.0192 18.5023 83.5791 18.6885C84.0785 18.8239 84.4635 19.0799 84.7344 19.4565C85.0094 19.8289 85.147 20.2775 85.147 20.8022C85.147 21.6698 84.8677 22.3363 84.3091 22.8018C83.7547 23.2673 82.9591 23.5 81.9224 23.5H78.5518ZM80.1577 19.3296V22.2178H81.9414C82.445 22.2178 82.8385 22.0929 83.1221 21.8433C83.4056 21.5936 83.5474 21.2466 83.5474 20.8022C83.5474 19.8416 83.0565 19.3507 82.0747 19.3296H80.1577ZM80.1577 18.1489H81.7319C82.2313 18.1489 82.6206 18.0368 82.8999 17.8125C83.1834 17.584 83.3252 17.2624 83.3252 16.8477C83.3252 16.3906 83.194 16.0605 82.9316 15.8574C82.6735 15.6543 82.2694 15.5527 81.7192 15.5527H80.1577V18.1489ZM94.4289 19.1201C94.4289 20.0257 94.2723 20.8213 93.9592 21.5068C93.646 22.1882 93.1975 22.7129 92.6135 23.0811C92.0337 23.445 91.3651 23.627 90.6076 23.627C89.8586 23.627 89.19 23.445 88.6018 23.0811C88.0178 22.7129 87.565 22.1903 87.2434 21.5132C86.926 20.8361 86.7652 20.0553 86.7609 19.1709V18.6504C86.7609 17.749 86.9196 16.9535 87.237 16.2637C87.5586 15.5739 88.0093 15.047 88.5891 14.6831C89.173 14.3149 89.8417 14.1309 90.5949 14.1309C91.3482 14.1309 92.0147 14.3128 92.5944 14.6768C93.1784 15.0365 93.6291 15.557 93.9465 16.2383C94.2639 16.9154 94.4247 17.7046 94.4289 18.606V19.1201ZM92.8229 18.6377C92.8229 17.6136 92.6283 16.8286 92.239 16.2827C91.8539 15.7368 91.3059 15.4639 90.5949 15.4639C89.9009 15.4639 89.3571 15.7368 88.9636 16.2827C88.5743 16.8244 88.3754 17.5924 88.3669 18.5869V19.1201C88.3669 20.1357 88.5637 20.9207 88.9572 21.4751C89.355 22.0295 89.9051 22.3066 90.6076 22.3066C91.3186 22.3066 91.8645 22.0358 92.2453 21.4941C92.6304 20.9525 92.8229 20.1611 92.8229 19.1201V18.6377ZM103.704 19.1201C103.704 20.0257 103.548 20.8213 103.235 21.5068C102.922 22.1882 102.473 22.7129 101.889 23.0811C101.309 23.445 100.641 23.627 99.8832 23.627C99.1342 23.627 98.4656 23.445 97.8773 23.0811C97.2934 22.7129 96.8406 22.1903 96.5189 21.5132C96.2016 20.8361 96.0408 20.0553 96.0365 19.1709V18.6504C96.0365 17.749 96.1952 16.9535 96.5126 16.2637C96.8342 15.5739 97.2849 15.047 97.8646 14.6831C98.4486 14.3149 99.1173 14.1309 99.8705 14.1309C100.624 14.1309 101.29 14.3128 101.87 14.6768C102.454 15.0365 102.905 15.557 103.222 16.2383C103.539 16.9154 103.7 17.7046 103.704 18.606V19.1201ZM102.099 18.6377C102.099 17.6136 101.904 16.8286 101.515 16.2827C101.129 15.7368 100.581 15.4639 99.8705 15.4639C99.1765 15.4639 98.6327 15.7368 98.2392 16.2827C97.8498 16.8244 97.6509 17.5924 97.6425 18.5869V19.1201C97.6425 20.1357 97.8393 20.9207 98.2328 21.4751C98.6306 22.0295 99.1807 22.3066 99.8832 22.3066C100.594 22.3066 101.14 22.0358 101.521 21.4941C101.906 20.9525 102.099 20.1611 102.099 19.1201V18.6377ZM108.257 19.5073L107.21 20.6182V23.5H105.604V14.2578H107.21V18.5933L108.099 17.4951L110.803 14.2578H112.745L109.311 18.3521L112.942 23.5H111.038L108.257 19.5073ZM116.187 14.2578L118.853 21.3418L121.513 14.2578H123.589V23.5H121.989V20.4531L122.148 16.3779L119.418 23.5H118.269L115.546 16.3843L115.705 20.4531V23.5H114.105V14.2578H116.187ZM131.081 21.3481H127.5L126.751 23.5H125.082L128.573 14.2578H130.014L133.512 23.5H131.836L131.081 21.3481ZM127.951 20.0532H130.63L129.291 16.2192L127.951 20.0532ZM138.261 19.939H136.471V23.5H134.865V14.2578H138.115C139.182 14.2578 140.005 14.4969 140.585 14.9751C141.164 15.4533 141.454 16.1452 141.454 17.0508C141.454 17.6686 141.304 18.187 141.004 18.606C140.707 19.0207 140.293 19.3402 139.759 19.5645L141.835 23.4175V23.5H140.115L138.261 19.939ZM136.471 18.6504H138.122C138.663 18.6504 139.087 18.515 139.391 18.2441C139.696 17.9691 139.848 17.5946 139.848 17.1206C139.848 16.6255 139.707 16.2425 139.423 15.9717C139.144 15.7008 138.725 15.5612 138.166 15.5527H136.471V18.6504ZM145.931 19.5073L144.884 20.6182V23.5H143.278V14.2578H144.884V18.5933L145.772 17.4951L148.476 14.2578H150.419L146.985 18.3521L150.616 23.5H148.711L145.931 19.5073Z" fill="white"/>
</g>
<defs>
<filter id="filter0_d_0_25" x="0" y="0" width="169" height="42" filterUnits="userSpaceOnUse" color-interpolation-filters="sRGB">
<feFlood flood-opacity="0" result="BackgroundImageFix"/>
<feColorMatrix in="SourceAlpha" type="matrix" values="0 0 0 0 0 0 0 0 0 0 0 0 0 0 0 0 0 0 127 0" result="hardAlpha"/>
<feOffset dy="2"/>
<feGaussianBlur stdDeviation="3"/>
<feColorMatrix type="matrix" values="0 0 0 0 0 0 0 0 0 0 0 0 0 0 0 0 0 0 0.06 0"/>
<feBlend mode="normal" in2="BackgroundImageFix" result="effect1_dropShadow_0_25"/>
<feBlend mode="normal" in="SourceGraphic" in2="effect1_dropShadow_0_25" result="shape"/>
</filter>
</defs>
</svg>
